<svg version="1.1" id="charLi" xmlns="http://www.w3.org/2000/svg" xmlns:xlink="http://www.w3.org/1999/xlink" x="0" y="0" width="120" height="120" xml:space="preserve">
  <style>
    .st0{fill:none;stroke:#2a2e68;stroke-width:1.5;stroke-linecap:round;stroke-linejoin:round}
  </style>
  <g id="Icone_Charli" transform="translate(24178.559 15750.205)">
    <path id="Tracé_152" class="st0" d="M-24093-15705.1l5.5 6.3s-8.5 12.7-2.3 35.5l-33 11.1-26.4-17.1c-.8-9.9-.5-19.8.9-29.6 1.3-7.5 3.1-14.9 5.3-22.2l30.2-7 1.5 1.7 18.3 21.3z"/>
    <path id="Tracé_153" class="st0" d="M-24143-15721.1l24 31.5s-6.9 9.5-3.8 37.4"/>
    <path id="Ligne_48" fill="none" stroke="#2a2e68" stroke-width="1.935" stroke-linecap="round" stroke-linejoin="round" d="M-24119-15689.6l30.8-9.3"/>
    <g id="Groupe_250" transform="translate(-1315.845 -283.895)">
      <g id="Groupe_287">
        <defs>
          <path id="SVGID_1_" d="M-22779.2-15417.1l-20.9 6.1-18.8-24.6 20-4.7z"/>
        </defs>
        <clipPath id="SVGID_2_">
          <use xlink:href="#SVGID_1_" overflow="visible"/>
        </clipPath>
        <g id="Groupe_286" clip-path="url(#SVGID_2_)">
          <g id="Groupe_249" transform="translate(-2.906 -2.123)">
            <g id="Groupe_248">
              <path id="Ecran" d="M-22773.8-15413.9l-23.6 6.9-21.3-27.8 22.6-5.3 22.3 26.2z" fill="#353535"/>
              <path id="Ecran-2" d="M-22778.1-15413l-20.2 5.9-18.3-23.9 19.4-4.5 19.1 22.5z" fill="#9d3be2"/>
            </g>
          </g>
        </g>
      </g>
    </g>
    <path id="Ecran-3" class="st0" d="M-24095.1-15701l-20.9 6.1-18.9-24.6 20.1-4.6 19.7 23.1z"/>
  </g>
</svg>
