<svg version="1.1" id="Digicab" xmlns="http://www.w3.org/2000/svg" x="0" y="0" width="120" height="120" viewBox="0 0 120 120" xml:space="preserve">
  <style>
    .st0{fill:none;stroke:#14186a;stroke-width:1.939;stroke-miterlimit:10}
  </style>
  <g id="Icone_digicab" transform="translate(23085.951 14479.412)">
    <path id="Ligne_44" class="st0" d="M-23004.2-14435.8l3.7-1.3"/>
    <path id="Ligne_45" class="st0" d="M-23057.7-14456.2l4.5-.8"/>
    <path id="Ligne_46" class="st0" d="M-23001.9-14432.4l3.8-1.3"/>
    <path id="Ligne_47" class="st0" d="M-23003.7-14382l5.9-1.5"/>
    <path id="Ecran-2-3" d="M-23055.2-14405.8v-43.8c0-.1.1-.2.2-.2h.1l47.9 18c.1 0 .1.1.1.2v44l-48.3-18.2z" fill="#43f6cb" stroke="#14186a" stroke-width=".969" stroke-miterlimit="10"/>
    <path id="Ecran-2-4" class="st0" d="M-23060-14405.5v-48.7c0-1.1.9-1.9 1.9-1.9.2 0 .5 0 .7.1l51.8 19.8c2.2.9 3.7 3 3.7 5.4v46.3c0 1.5-1.2 2.7-2.7 2.7-.3 0-.7-.1-1-.2l-51.9-19.9c-1.5-.6-2.5-2-2.5-3.6z"/>
    <path id="Ecran-3-2" class="st0" d="M-23055.1-14455.1c0-1.1.9-1.9 1.9-1.9.2 0 .5 0 .7.1l51.8 19.8c2.2.9 3.7 3 3.7 5.4v9.5c0 1.1.9 1.9 1.9 1.9.2 0 .4 0 .6-.1 1-.3 2.1.2 2.4 1.2.1.2.1.4.1.6v20.8c0 .8-.5 1.5-1.3 1.8l-2.5.9c-.8.3-1.3 1-1.3 1.8v7.8c0 1.5-1.2 2.7-2.7 2.7-.3 0-.7-.1-1-.2"/>
    <path id="Ecran-4" class="st0" d="M-22996.9-14421.8l4.1 1.6"/>
  </g>
</svg>
