<svg width="1440" height="182" viewBox="0 0 1440 182" fill="none" xmlns="http://www.w3.org/2000/svg">
<rect width="1440" height="182" transform="matrix(-1 0 0 1 1440 0)" fill="#F5F6F8"/>
<path fill-rule="evenodd" clip-rule="evenodd" d="M1440 15.1982L1380 31.8034C1320 48.4085 1200 74.5498 1080 74.5498C960 74.5498 840 48.4085 720 31.8034C600 15.1982 480 15.1982 360 26.2683C240 37.3384 120 59.4785 60 70.5486L0 81.6187V181.249H60C120 181.249 240 181.249 360 181.249C480 181.249 600 181.249 720 181.249C840 181.249 960 181.249 1080 181.249C1200 181.249 1320 181.249 1380 181.249H1440V15.1982Z" fill="#14186A"/>
<path fill-rule="evenodd" clip-rule="evenodd" d="M1440 0.240234L1380 16.8453C1320 33.4505 1200 59.5918 1080 59.5918C960 59.5918 840 33.4505 720 16.8453C600 0.240234 480 0.240234 360 11.3103C240 22.3804 120 44.5205 60 55.5906L0 66.6607V166.291H60C120 166.291 240 166.291 360 166.291C480 166.291 600 166.291 720 166.291C840 166.291 960 166.291 1080 166.291C1200 166.291 1320 166.291 1380 166.291H1440V0.240234Z" fill="#14186A" fill-opacity="0.25"/>
<path fill-rule="evenodd" clip-rule="evenodd" d="M1440 7.22168L1380 23.8268C1320 40.4319 1200 66.5733 1080 66.5733C960 66.5733 840 40.4319 720 23.8268C600 7.22168 480 7.22168 360 18.2918C240 29.3618 120 51.502 60 62.5721L0 73.6421V173.273H60C120 173.273 240 173.273 360 173.273C480 173.273 600 173.273 720 173.273C840 173.273 960 173.273 1080 173.273C1200 173.273 1320 173.273 1380 173.273H1440V7.22168Z" fill="#14186A"/>
</svg>
