<?xml version="1.0" encoding="utf-8"?>
<!-- Generator: Adobe Illustrator 26.0.3, SVG Export Plug-In . SVG Version: 6.00 Build 0)  -->
<svg version="1.1" id="Digicab" xmlns="http://www.w3.org/2000/svg" xmlns:xlink="http://www.w3.org/1999/xlink" x="0px" y="0px"
	 viewBox="0 0 120 120" style="enable-background:new 0 0 120 120;" xml:space="preserve">
<style type="text/css">
	.st0{fill:#FFFFFF;stroke:#14186A;stroke-width:1.5;stroke-miterlimit:10;}
	.st1{fill:none;stroke:#14186A;stroke-width:1.5;stroke-miterlimit:10;}
	.st2{fill:#43F6CB;stroke:#14186A;stroke-width:1.5;stroke-miterlimit:10;}
	.st3{display:none;}
	.st4{display:inline;fill:none;stroke:#F9F9F9;stroke-width:1.5;stroke-miterlimit:9.9994;}
	.st5{display:inline;fill:none;stroke:#FFFFFF;stroke-width:1.5;stroke-miterlimit:10;}
	.st6{display:inline;}
	.st7{fill:#43F6CB;}
	.st8{fill:none;stroke:#F9F9F9;stroke-width:1.5;stroke-miterlimit:9.9994;}
	.st9{fill:none;stroke:#FFFFFF;stroke-width:1.5;stroke-miterlimit:10;}
</style>
<g id="V8">
	<g id="Bretelle_x5F_D_00000162313194058690677580000005800852109014380692_">
		<path class="st0" d="M91.8,33.4c0.4,0.8,0.6,1.7,0.6,2.8v29.2c0,3.1-1.8,11.1-6.9,15.5l-6.2,3.6l5.3,0.8l5.8-3.5
			c0.2-0.1,0.4-0.3,0.6-0.5c4-4.4,5.5-10.9,5.5-13.9V38.1C96.4,34.6,94.4,32.8,91.8,33.4L91.8,33.4z"/>
		<path class="st0" d="M91.8,33.4L91.8,33.4c-0.7,0.2-1.4,0.4-2.1,0.8l-4.3,2.5l-4.1-2l4.3-2.5c1.1-0.6,2.1-0.9,3-0.9
			c0.3,0,0.6,0.1,1,0.2l4.4,1.9l0,0l-1.2-0.3L91.8,33.4z"/>
	</g>
	<g id="Bretelle_x5F_G_00000018928567392525040440000012337789899198500001_">
		<path class="st0" d="M74.5,23.6c0.4,0.8,0.6,1.7,0.6,2.8v29.2c0,3.1-1.8,11.1-6.9,15.5L62,74.7l5.3,0.8l5.8-3.5
			c0.2-0.1,0.4-0.3,0.6-0.5c4-4.4,5.5-10.9,5.5-13.9V28.3C79.2,24.8,77.2,23,74.5,23.6L74.5,23.6z"/>
		<path class="st0" d="M74.5,23.6L74.5,23.6c-0.7,0.2-1.4,0.4-2.1,0.8l-4.3,2.5l-4.1-2l4.3-2.5c1.1-0.6,2.1-0.9,3-0.9
			c0.3,0,0.6,0.1,1,0.2l4.4,1.9l0,0l-1.2-0.3L74.5,23.6z"/>
	</g>
	<g id="Base_00000075861660402877153100000005428030284539610768_">
		<path id="Haut_00000005227465025470843910000008240838277362991252_" class="st0" d="M57.3,60.2L23.8,40.8c-0.1-0.1-0.1-0.2,0-0.3
			l33.5-19.3l33.4,19.3c0.1,0.1,0.1,0.2,0,0.3L57.3,60.2z"/>
		<path id="Cote_x5F_G_00000152258491229652061420000014999948977183116461_" class="st0" d="M59.3,59l25.8-14.9
			c2.6-1.5,5.9,0.4,5.9,3.4v39.6c0,1.4-0.8,2.7-2,3.4l-26.4,15.4c-3.3,1.9-7.4,1.9-10.7,0L25.5,90.4c-1.2-0.7-2-2-2-3.4V47.5"/>
		
			<line id="Cote_x5F_D_00000075129425308562824660000010168578913841357988_" class="st1" x1="57.3" y1="107.3" x2="57.3" y2="62.4"/>
	</g>
	<g id="Couvercle_00000080186599376410885210000016630255254448795578_">
		<path id="Côté_00000160897739408553162510000006350027756252600192_" class="st0" d="M92.5,38.8v7.1c0,1.1-0.6,2.1-1.5,2.7
			L62.6,64.9c-3.3,1.9-7.4,1.9-10.7,0L23.6,48.5c-1-0.6-1.5-1.6-1.5-2.7v-7.1"/>
		<path id="BASE_00000018235564028490439830000016835071804070349969_" class="st0" d="M52,58L24,41.9c-2.6-1.5-2.6-5.3,0-6.8
			l29.4-17c2.4-1.4,5.3-1.4,7.7,0l29.4,17c2.6,1.5,2.6,5.3,0,6.8L62.6,58C59.3,59.9,55.3,59.9,52,58z"/>
	</g>
	<g id="Ecran_x5F_G_00000050644316582274821690000015906641242939024768_">
		<path id="Ecran_x5F_G_00000148628756784475994130000014724124880341555856_" class="st2" d="M51.6,102.9L28.4,89.6
			c-1.2-0.7-2-2-2-3.4V56.4c0-1.5,1.6-2.5,2.9-1.7l23.2,13.4c1.2,0.7,2,2,2,3.4v29.8C54.5,102.7,52.9,103.7,51.6,102.9z"/>
		<g id="PLay_00000073694412008737664390000017290225274434947735_" class="st3">
			<ellipse transform="matrix(0.9049 -0.4257 0.4257 0.9049 -29.6818 24.688)" class="st4" cx="40.4" cy="78.7" rx="3.6" ry="6"/>
			<path class="st5" d="M40.1,77.1l1.4,2.1c0.1,0.1,0.1,0.3,0,0.4L40,80.1c-0.1,0-0.3-0.2-0.3-0.3l0.1-2.6
				C39.8,76.9,40,76.9,40.1,77.1z"/>
		</g>
	</g>
	<g id="Ecran_x5F_D_00000001632399772266387630000006162690947149638292_">
		<path id="Ecran_x5F_D_00000065037035973194620770000012350575682491305368_" class="st2" d="M86.2,89.6L63,102.9
			c-1.3,0.8-2.9-0.2-2.9-1.7V71.6c0-1.4,0.8-2.7,2-3.4l23.2-13.4c1.3-0.8,2.9,0.2,2.9,1.7v29.6C88.2,87.6,87.4,88.9,86.2,89.6z"/>
		<g id="PLay_00000053507096923522532870000005047435437984137146_" class="st3">
			<g class="st6">
				
					<ellipse transform="matrix(0.4257 -0.9049 0.9049 0.4257 -28.7567 112.3423)" class="st7" cx="74.1" cy="78.8" rx="6" ry="3.6"/>
				<path class="st7" d="M73.9,80.5l1.4-2.1c0.1-0.1,0.1-0.3,0-0.4l-1.5-0.5c-0.1,0-0.3,0.2-0.3,0.3l0.1,2.6
					C73.6,80.7,73.8,80.7,73.9,80.5z"/>
			</g>
			<g class="st6">
				
					<ellipse transform="matrix(0.4257 -0.9049 0.9049 0.4257 -28.7567 112.3423)" class="st8" cx="74.1" cy="78.8" rx="6" ry="3.6"/>
				<path class="st9" d="M73.9,80.5l1.4-2.1c0.1-0.1,0.1-0.3,0-0.4l-1.5-0.5c-0.1,0-0.3,0.2-0.3,0.3l0.1,2.6
					C73.6,80.7,73.8,80.7,73.9,80.5z"/>
			</g>
		</g>
	</g>
</g>
</svg>
