<svg version="1.1" id="bubbles" xmlns="http://www.w3.org/2000/svg" x="0" y="0" width="120" height="120" xml:space="preserve">
  <style>
    .st0{fill:#8dd9ff}.st2{fill:none;stroke:#2a2e68;stroke-width:1.214;stroke-miterlimit:10}.st3{fill:#2a2e68}
  </style>
  <path id="COUVERCLE_HAUT" class="st0" d="M34.2 26.3c3.3-1.9 7-3 10.8-3.1 4.4 0 8.8.3 13.2.8 2.2.5 10.7 3.4 14 6.7s7.2 9.9 7.6 11.8c.3.9.6 1.8 1 2.7l-2.3-.4c-1.6 0-3.2.1-4.8.4-1.1.2-2.2.5-3.2 1 0 0-3.8-7.6-5.6-10.1-2.5-3.1-5.5-5.8-8.8-8.1-3-2-6.7-4.1-11.6-4-3.7 0-7.2.8-10.3 2.3z"/>
  <g id="Groupe_233">
    <path id="Tracé_133" d="M83.4 53.6c-1.2-3.8-2.2-8.3-3.2-10.7-3.1-9.5-10.5-15.4-16.4-17.2 7.7-3.2 14.9-1.3 21.3 3.2 7.6 5.2 12.8 14 14.9 23.3" fill="none" stroke="#2a2e68" stroke-width="1.214" stroke-linecap="round" stroke-linejoin="round"/>
  </g>
  <g id="INTERIEUR">
    <path id="Tracé_136" class="st2" d="M26.5 33.7c-1.2.1-2.4.4-3.5 1-4.8 2.2-7.8 6.6-9.3 9.4-3.4 6.6-3.4 13.8-2.5 19.8.1.7-.5 1.9-.5 3.4"/>
  </g>
  <g id="SOCLE_TELEPHONE">
    <g id="SOCLE_RECHARGE_TELEPHONE">
      <g id="SOCLE_RECHARGE_TELEPHONE-2">
        <path id="Tracé_139" class="st3" d="M52.3 66.6c-.3 1-.4 1.9-.5 2.9-.1 1.2-.2 2.3-.4 3.5-.9.2-1.8.3-2.7.2-2 0-4.1-.2-6.1-.8-2-.5-3.8-1.3-5.6-2.3-1.9-1.4-1.9-2.5-1.9-2.9 0-2 2.7-3.4 6.3-4.1 4-.8 8-1 12-.4-.1.6-.3 1.5-1.1 3.9z"/>
      </g>
      <path id="Rectangle_127" class="st3" d="M35.2 64.6h2.9v2.9h-2.9z"/>
      <g id="SOCLE_RECHARGE_TELEPHONE-3">
        <path id="Tracé_140" d="M53 64.2c-.2.7-.7 2.3-.9 2.9-.2 1.1-.4 2.3-.5 3.4-1 .2-1.9.4-2.9.3-2 0-4.1-.2-6.1-.8-2-.5-3.8-1.3-5.6-2.3-1.9-1.4-1.9-2.5-1.9-2.9 0-2 2.7-3.4 6.3-4.1 4.3-.8 8.7-.9 13.1-.2-.5 1.2-1.1 2.4-1.5 3.7z" fill="#181c22"/>
        <g id="Groupe_237">
          <g id="Groupe_236">
            <path id="Tracé_141" d="M53.1 64.4c-.2.7-.7 2.2-.8 2.8-.2 1.1-.4 2.2-.4 3.3-.9.2-1.9.3-2.8.3-2 0-4-.2-5.9-.8-1.9-.5-3.7-1.2-5.4-2.2C36 66.4 36 65.3 36 65c0-1.9 2.6-3.3 6.2-4 4.1-.8 8.3-1 12.5-.4-.6.5-.8 1.5-1.6 3.8z" fill="#8dd9ff" stroke="#2a2e68" stroke-width="1.194" stroke-miterlimit="10"/>
          </g>
        </g>
      </g>
    </g>
  </g>
  <path id="Tracé_142" class="st2" d="M67.7 40.8c-2.3-.4-19.5-1.3-22.5-1-2 .2-4-.3-5.6-1.6-1.9-1.2-4-1.9-6.1-2.2-3.3-.2-6.7.7-9.3 2.8-3.6 2.5-5.8 4.8-7.3 11.3-.9 4.2-.4 11-.1 13.4-.1 1.3-.1 2.6 0 3.9v.2c0 .5 0 2.2 2.4 4.4.4.4.8.7 1.2 1 2.1 1.5 7.8 3.6 10.6 4.3 1.2.3 2.4.6 3.6.8h.1c2 .4 4 .6 6 .7 1.6.1 3.1 0 4.6-.2 1 0 2-.2 3-.6 0 0 .1 0 .1-.1.5-.2.9-.5 1.3-.8 1.5-1.3 1.7-3.3 1.9-5.8V71c.1-.5.1-1.1.2-1.8.2-1.5.5-2.9 1-4.3.4-1.1.7-2 1-2.7.4-.9.8-1.7 1.2-2.5 0 0 .1 0 0 0 2.3-4.4 5.4-8.3 9.3-11.4 1.7-1.3 3.6-2.2 5.6-2.7"/>
  <g id="COUVERCLE_BORDURE">
    <g id="Groupe_241">
      <g id="Groupe_240">
        <g id="Groupe_239">
          <g id="COUVERCLE_BORDURE-2">
            <path id="Tracé_143" class="st2" d="M70.4 46l-1.5-3c-1.9-3.4-5.3-9.1-9.9-12.9-3.3-2.7-7.1-4.6-11.3-5.6-4.8-1.1-9.8-.3-14 2.3-1.9 1.2-3.7 2.7-5.3 4.3l-.1.1c-1.5 1.6-2.7 3.6-3.3 5.7l-.5 1.5"/>
          </g>
        </g>
      </g>
    </g>
  </g>
  <path id="COQUE_BUBBLE-2" class="st2" d="M72.7 88.2c-7.2 6.2-16.4 9.5-25.9 9.3-12 0-23.4-5.7-30.5-15.4-3.5-4.8-5.8-9.1-5.8-15.1.1-.5.3-1 .5-1.5.1 0-.2 2.3-.2 2.3.3 2.1 1.4 4 3.2 5.1 4.8 2.8 10.1 4.9 15.5 6.1 7.6 1.6 15.4 2.4 23.1 2.3 4-.2 3.8-3.3 3.8-3.3-.6-11 3-23.8 11.9-30.5 2.7-2.1 6-3.1 9.4-2.9l3.3.4"/>
  <path id="COQUE_BUBBLE-2-2" class="st2" d="M54.5 23.4c3.3.4 6.5 1.2 9.7 2.4"/>
  <ellipse id="DISQUE_COTE_DROIT" transform="rotate(-73.513 76.752 69.185)" cx="76.8" cy="69.2" rx="13.7" ry="8.6" fill="none" stroke="#2a2e68" stroke-width="1.214" stroke-miterlimit="10"/>
  <path id="RAINURE" d="M61.5 55.4c.3.2 4.2 3 4.8 3.4s4.1 3.5 4.1 3.5" fill="#fff" stroke="#2a2e68" stroke-width="1.214" stroke-miterlimit="10"/>
  <g id="ACCROCHE-2">
    <path id="Tracé_144" class="st0" d="M48 23.2c1-.6 2.2-1 3.4-1 1.3-.1 2.6.3 3.8.9.7.6 1.2 1.3 1.5 2.1-1.1-.7-2.4-1.1-3.7-1.4-1.6-.3-3.3-.5-5-.6z"/>
    <g id="Groupe_243">
      <g id="Groupe_242">
        <path id="Tracé_145" class="st3" d="M48 23.2c1-.6 2.2-1 3.4-1 1.3-.1 2.6.3 3.8.9.7.6 1.2 1.3 1.5 2.1-1.1-.7-2.4-1.1-3.7-1.4-1.6-.3-3.3-.5-5-.6z"/>
      </g>
    </g>
  </g>
  <g id="COQUE_ECRAN">
    <path id="Tracé_146" class="st3" d="M98.8 92.9c-1.1 1.9-4.3 6.4-10.8 4.6-1.4-.4 4.3 1 8-2.5 3.8-3.7 5.6-12.3 6.5-13.8 1.3-2.1 2.9-8.8 4.6-14.9 1.7-6.2 1.1-9 1.9-7 .6 1.5.7 3.2.4 4.8-1.2 5.1-3.4 11-4.4 14.4-1.6 4.9-3.7 9.7-6.2 14.4z"/>
  </g>
  <g id="COQUE_ECRAN-2">
    <path id="Tracé_147" class="st2" d="M96.9 93.6c-1.1 1.9-3 4.4-8.4 3.3-4.2-1-8.3-2.5-12.2-4.3-2.8-1.5-5.3-3.8-4-9 .5-2-.7-1.7-1.5-2.3-.5-.4 1.1-2.1 1.7-2.9 1.4-2 4-8.2 4.4-9.5 1.1-3 1.9-6.2 2.4-9.4.2-1.9-.5-3.6.3-3.3 2.6.8 2.7-.2 3.5-1.7 2.7-5.6 8.7-4.2 11.8-3.5 2.1.5 7 1.8 9 2.4 3 1 5.6 4.9 4.6 9.1-1.2 5.2-3.4 11.1-4.4 14.6-2.1 5.6-4.4 11.2-7.2 16.5z"/>
  </g>
  <g id="COQUE_ECRAN-3">
    <path id="Tracé_148" class="st3" d="M95.1 91.4c-1 1.8-2.6 4-7.2 3.1-3.6-.9-7.2-2.1-10.5-3.8-2.4-1.3-4.6-3.4-3.3-8.1 1.5-5.4 3.6-11.6 4.2-13.2 1.8-4.9 3.7-9.9 5.4-13.3 2.4-5.1 7.5-3.8 10.1-3.1 3 .7 5.9 1.5 8.8 2.5 3.1 1.4 3.6 3.9 2.7 7.7-1.1 4.7-3.1 10.1-4 13.2-1.7 5.1-3.8 10.1-6.2 15z"/>
    <g id="Groupe_245">
      <g id="Groupe_244" opacity=".7">
        <path id="Tracé_149" class="st3" d="M95.1 91.4c-1 1.8-2.6 4-7.2 3.1-3.6-.9-7.2-2.1-10.5-3.8-2.4-1.3-4.6-3.4-3.3-8.1 1.5-5.4 3.6-11.6 4.2-13.2 1.8-4.9 3.7-9.9 5.4-13.3 2.4-5.1 7.5-3.8 10.1-3.1 3 .7 5.9 1.5 8.8 2.5 3.1 1.4 3.6 3.9 2.7 7.7-1.1 4.7-3.1 10.1-4 13.2-1.7 5.1-3.8 10.1-6.2 15z"/>
      </g>
    </g>
  </g>
  <g id="ECRAN-2-2">
    <path id="Tracé_150" class="st3" d="M91.4 89.5l-13.9-4.8 10-27.7 14.1 4-10.2 28.5z"/>
    <g id="Groupe_247">
      <g id="Groupe_246">
        <path id="Tracé_151" class="st0" d="M91.3 88.7l-12.9-4.6 9.3-26.3 13.1 3.8-9.5 27.1z"/>
      </g>
    </g>
  </g>
  <path id="CONTOURS_ECRAN" d="M91.4 89.5l-13.9-4.8 10-27.7 14.1 4-10.2 28.5z" fill="none" stroke="#2a2e68" stroke-width=".243" stroke-miterlimit="10"/>
</svg>
