<svg width="1440" height="150" viewBox="0 0 1440 150" fill="none" xmlns="http://www.w3.org/2000/svg">
<path d="M0 54.5008L0 150H1440V18.5951L1369.12 33.3084C1366.16 33.9023 1363.08 34.5228 1359.87 35.1672C1286.4 49.9358 1150.57 77.2379 1014.75 84.0439C873 91.6542 731.25 76.9409 589.5 58.6761C575.525 56.8754 561.549 55.0401 547.574 53.2048C419.799 36.4252 292.025 19.6455 164.25 29.2495C108.026 33.6768 51.8015 43.2126 0 54.5008Z" fill="#F5F6F8"/>
<path d="M0 35.9058L0 131.405H1440V0L1369.12 14.7133C1366.16 15.3072 1363.08 15.9277 1359.87 16.5721C1286.4 31.3407 1150.57 58.6428 1014.75 65.4488C873 73.0591 731.25 58.3458 589.5 40.081C575.525 38.2803 561.549 36.445 547.574 34.6097C419.799 17.8301 292.025 1.05044 164.25 10.6545C108.026 15.0817 51.8015 24.6175 0 35.9058Z" fill="#F5F6F8" fill-opacity="0.25"/>
<path opacity="0.9" d="M0 43.9636L0 139.463H1440V8.05786L1369.12 22.7712C1366.16 23.3651 1363.08 23.9856 1359.87 24.6299C1286.4 39.3985 1150.57 66.7006 1014.75 73.5067C873 81.117 731.25 66.4037 589.5 48.1389C575.525 46.3382 561.549 44.5029 547.574 42.6676C419.799 25.888 292.025 9.1083 164.25 18.7123C108.026 23.1396 51.8015 32.6753 0 43.9636Z" fill="#F5F6F8" fill-opacity="0.6"/>
</svg>
